<?xml version="1.0" standalone="no"?>
<!DOCTYPE svg PUBLIC "-//W3C//DTD SVG 20010904//EN"
 "http://www.w3.org/TR/2001/REC-SVG-20010904/DTD/svg10.dtd">
<svg version="1.0" xmlns="http://www.w3.org/2000/svg"
 width="512.000000pt" height="512.000000pt" viewBox="0 0 512.000000 512.000000"
 preserveAspectRatio="xMidYMid meet">
<metadata>
Created by potrace 1.11, written by Peter Selinger 2001-2013
</metadata>
<g transform="translate(0.000000,512.000000) scale(0.100000,-0.100000)"
fill="#000000" stroke="none">
<path d="M2 2560 l3 -2305 2548 0 c1402 0 2553 3 2558 6 5 3 8 937 7 2304 l-3
2300 -2558 0 -2557 0 2 -2305z m4608 0 l0 -1790 -2050 0 -2050 0 0 1790 0
1790 2050 0 2050 0 0 -1790z"/>
<path d="M1406 3453 l-156 -157 370 -370 370 -371 -368 -368 -369 -368 160
-159 161 -159 523 523 c288 288 523 527 523 531 0 8 -1045 1055 -1053 1055 -2
0 -75 -71 -161 -157z"/>
<path d="M2593 1535 l0 -255 624 0 623 0 0 255 0 255 -623 0 -624 0 0 -255z"/>
</g>
</svg>
