<svg width="48.00000000000001" height="48.00000000000001" xmlns="http://www.w3.org/2000/svg">

 <g>
  <title>background</title>
  <rect fill="none" id="canvas_background" height="402" width="582" y="-1" x="-1"/>
 </g>
 <g>
  <title>Layer 1</title>
  <circle id="svg_1" r="24" fill="#000000" cy="24" cx="24"/>
  <path id="svg_2" fill="#fdfdfd" d="m35.2,18.5c0,-0.1 0,-0.2 -0.1,-0.3c0,0 0,-0.1 0,-0.1c-0.3,-0.9 -1.1,-1.5 -2.1,-1.5l0.2,0c0,0 -3.9,-0.6 -9.2,-0.6c-5.2,0 -9.2,0.6 -9.2,0.6l0.2,0c-1,0 -1.8,0.6 -2.1,1.5c0,0 0,0.1 0,0.1c0,0.1 0,0.2 -0.1,0.3c-0.1,1 -0.4,3.1 -0.4,5.5c0,2.4 0.3,4.5 0.4,5.5c0,0.1 0,0.2 0.1,0.3c0,0 0,0.1 0,0.1c0.3,0.9 1.1,1.5 2.1,1.5l-0.2,0c0,0 3.9,0.6 9.2,0.6c5.2,0 9.2,-0.6 9.2,-0.6l-0.2,0c1,0 1.8,-0.6 2.1,-1.5c0,0 0,-0.1 0,-0.1c0,-0.1 0,-0.2 0.1,-0.3c0.1,-1 0.4,-3.1 0.4,-5.5c0,-2.4 -0.2,-4.5 -0.4,-5.5zm-7.8,6l-4.7,3.4c-0.1,0.1 -0.2,0.1 -0.3,0.1c-0.1,0 -0.2,0 -0.3,-0.1c-0.2,-0.1 -0.3,-0.3 -0.3,-0.5l0,-6.8c0,-0.2 0.1,-0.4 0.3,-0.5c0.2,-0.1 0.4,-0.1 0.6,0l4.7,3.4c0.1,0.1 0.2,0.3 0.2,0.5c0.1,0.2 0,0.4 -0.2,0.5z"/>
 </g>
</svg>